<mxfile host="Electron" modified="2024-07-11T08:26:56.878Z" agent="Mozilla/5.0 (Windows NT 10.0; Win64; x64) AppleWebKit/537.36 (KHTML, like Gecko) draw.io/24.6.4 Chrome/124.0.6367.207 Electron/30.0.6 Safari/537.36" etag="GISZaF1ak3E3nazb8G5e" version="24.6.4" type="device">
  <diagram id="R2lEEEUBdFMjLlhIrx00" name="Page-1">
    <mxGraphModel dx="1050" dy="629" grid="1" gridSize="10" guides="1" tooltips="1" connect="1" arrows="1" fold="1" page="1" pageScale="1" pageWidth="850" pageHeight="1100" math="0" shadow="0" extFonts="Permanent Marker^https://fonts.googleapis.com/css?family=Permanent+Marker">
      <root>
        <mxCell id="0" />
        <mxCell id="1" parent="0" />
        <mxCell id="C-vyLk0tnHw3VtMMgP7b-2" value="Carts" style="shape=table;startSize=30;container=1;collapsible=1;childLayout=tableLayout;fixedRows=1;rowLines=0;fontStyle=1;align=center;resizeLast=1;" parent="1" vertex="1">
          <mxGeometry x="450" y="120" width="250" height="150" as="geometry" />
        </mxCell>
        <mxCell id="C-vyLk0tnHw3VtMMgP7b-3" value="" style="shape=partialRectangle;collapsible=0;dropTarget=0;pointerEvents=0;fillColor=none;points=[[0,0.5],[1,0.5]];portConstraint=eastwest;top=0;left=0;right=0;bottom=1;" parent="C-vyLk0tnHw3VtMMgP7b-2" vertex="1">
          <mxGeometry y="30" width="250" height="30" as="geometry" />
        </mxCell>
        <mxCell id="C-vyLk0tnHw3VtMMgP7b-4" value="PK" style="shape=partialRectangle;overflow=hidden;connectable=0;fillColor=#dae8fc;top=0;left=0;bottom=0;right=0;fontStyle=1;strokeColor=#6c8ebf;" parent="C-vyLk0tnHw3VtMMgP7b-3" vertex="1">
          <mxGeometry width="40" height="30" as="geometry">
            <mxRectangle width="40" height="30" as="alternateBounds" />
          </mxGeometry>
        </mxCell>
        <mxCell id="C-vyLk0tnHw3VtMMgP7b-5" value="CartId int" style="shape=partialRectangle;overflow=hidden;connectable=0;fillColor=none;top=0;left=0;bottom=0;right=0;align=left;spacingLeft=6;fontStyle=5;" parent="C-vyLk0tnHw3VtMMgP7b-3" vertex="1">
          <mxGeometry x="40" width="210" height="30" as="geometry">
            <mxRectangle width="210" height="30" as="alternateBounds" />
          </mxGeometry>
        </mxCell>
        <mxCell id="C-vyLk0tnHw3VtMMgP7b-9" value="" style="shape=partialRectangle;collapsible=0;dropTarget=0;pointerEvents=0;fillColor=none;points=[[0,0.5],[1,0.5]];portConstraint=eastwest;top=0;left=0;right=0;bottom=0;" parent="C-vyLk0tnHw3VtMMgP7b-2" vertex="1">
          <mxGeometry y="60" width="250" height="90" as="geometry" />
        </mxCell>
        <mxCell id="C-vyLk0tnHw3VtMMgP7b-10" value="" style="shape=partialRectangle;overflow=hidden;connectable=0;fillColor=none;top=0;left=0;bottom=0;right=0;" parent="C-vyLk0tnHw3VtMMgP7b-9" vertex="1">
          <mxGeometry width="40" height="90" as="geometry">
            <mxRectangle width="40" height="90" as="alternateBounds" />
          </mxGeometry>
        </mxCell>
        <mxCell id="C-vyLk0tnHw3VtMMgP7b-11" value="CustomerId int NOT NULL&#xa;&#xa;QuantityProduct int NOT NULL&#xa;&#xa;PriceTotal double NOT NULL" style="shape=partialRectangle;overflow=hidden;connectable=0;fillColor=none;top=0;left=0;bottom=0;right=0;align=left;spacingLeft=6;" parent="C-vyLk0tnHw3VtMMgP7b-9" vertex="1">
          <mxGeometry x="40" width="210" height="90" as="geometry">
            <mxRectangle width="210" height="90" as="alternateBounds" />
          </mxGeometry>
        </mxCell>
        <mxCell id="A0Pm9XfwY5P06-nTeu7w-6" value="Addresses" style="shape=table;startSize=30;container=1;collapsible=1;childLayout=tableLayout;fixedRows=1;rowLines=0;fontStyle=1;align=center;resizeLast=1;" parent="1" vertex="1">
          <mxGeometry x="90" y="410" width="260" height="210" as="geometry" />
        </mxCell>
        <mxCell id="A0Pm9XfwY5P06-nTeu7w-7" value="" style="shape=partialRectangle;collapsible=0;dropTarget=0;pointerEvents=0;fillColor=none;points=[[0,0.5],[1,0.5]];portConstraint=eastwest;top=0;left=0;right=0;bottom=1;" parent="A0Pm9XfwY5P06-nTeu7w-6" vertex="1">
          <mxGeometry y="30" width="260" height="40" as="geometry" />
        </mxCell>
        <mxCell id="A0Pm9XfwY5P06-nTeu7w-8" value="PK" style="shape=partialRectangle;overflow=hidden;connectable=0;fillColor=#dae8fc;top=0;left=0;bottom=0;right=0;fontStyle=1;strokeColor=#6c8ebf;" parent="A0Pm9XfwY5P06-nTeu7w-7" vertex="1">
          <mxGeometry width="40" height="40" as="geometry">
            <mxRectangle width="40" height="40" as="alternateBounds" />
          </mxGeometry>
        </mxCell>
        <mxCell id="A0Pm9XfwY5P06-nTeu7w-9" value="AddressId int " style="shape=partialRectangle;overflow=hidden;connectable=0;fillColor=none;top=0;left=0;bottom=0;right=0;align=left;spacingLeft=6;fontStyle=5;" parent="A0Pm9XfwY5P06-nTeu7w-7" vertex="1">
          <mxGeometry x="40" width="220" height="40" as="geometry">
            <mxRectangle width="220" height="40" as="alternateBounds" />
          </mxGeometry>
        </mxCell>
        <mxCell id="A0Pm9XfwY5P06-nTeu7w-10" value="" style="shape=partialRectangle;collapsible=0;dropTarget=0;pointerEvents=0;fillColor=none;points=[[0,0.5],[1,0.5]];portConstraint=eastwest;top=0;left=0;right=0;bottom=0;" parent="A0Pm9XfwY5P06-nTeu7w-6" vertex="1">
          <mxGeometry y="70" width="260" height="140" as="geometry" />
        </mxCell>
        <mxCell id="A0Pm9XfwY5P06-nTeu7w-11" value="" style="shape=partialRectangle;overflow=hidden;connectable=0;fillColor=none;top=0;left=0;bottom=0;right=0;" parent="A0Pm9XfwY5P06-nTeu7w-10" vertex="1">
          <mxGeometry width="40" height="140" as="geometry">
            <mxRectangle width="40" height="140" as="alternateBounds" />
          </mxGeometry>
        </mxCell>
        <mxCell id="A0Pm9XfwY5P06-nTeu7w-12" value="Country varchar(50) NOT NULL&#xa;&#xa;Region varchar(50) NOT NULL&#xa;&#xa;City varchar(50) NOT NULL&#xa;&#xa;StreetAddress varchar(50) NOT NULL&#xa;&#xa;PostalCode int NOT NULL" style="shape=partialRectangle;overflow=hidden;connectable=0;fillColor=none;top=0;left=0;bottom=0;right=0;align=left;spacingLeft=6;" parent="A0Pm9XfwY5P06-nTeu7w-10" vertex="1">
          <mxGeometry x="40" width="220" height="140" as="geometry">
            <mxRectangle width="220" height="140" as="alternateBounds" />
          </mxGeometry>
        </mxCell>
        <mxCell id="A0Pm9XfwY5P06-nTeu7w-13" value="Roles" style="shape=table;startSize=30;container=1;collapsible=1;childLayout=tableLayout;fixedRows=1;rowLines=0;fontStyle=1;align=center;resizeLast=1;" parent="1" vertex="1">
          <mxGeometry x="165" y="670" width="245" height="120" as="geometry" />
        </mxCell>
        <mxCell id="A0Pm9XfwY5P06-nTeu7w-14" value="" style="shape=partialRectangle;collapsible=0;dropTarget=0;pointerEvents=0;fillColor=none;points=[[0,0.5],[1,0.5]];portConstraint=eastwest;top=0;left=0;right=0;bottom=1;" parent="A0Pm9XfwY5P06-nTeu7w-13" vertex="1">
          <mxGeometry y="30" width="245" height="40" as="geometry" />
        </mxCell>
        <mxCell id="A0Pm9XfwY5P06-nTeu7w-15" value="PK" style="shape=partialRectangle;overflow=hidden;connectable=0;fillColor=#dae8fc;top=0;left=0;bottom=0;right=0;fontStyle=1;strokeColor=#6c8ebf;" parent="A0Pm9XfwY5P06-nTeu7w-14" vertex="1">
          <mxGeometry width="40" height="40" as="geometry">
            <mxRectangle width="40" height="40" as="alternateBounds" />
          </mxGeometry>
        </mxCell>
        <mxCell id="A0Pm9XfwY5P06-nTeu7w-16" value="RoleId int " style="shape=partialRectangle;overflow=hidden;connectable=0;fillColor=none;top=0;left=0;bottom=0;right=0;align=left;spacingLeft=6;fontStyle=5;" parent="A0Pm9XfwY5P06-nTeu7w-14" vertex="1">
          <mxGeometry x="40" width="205" height="40" as="geometry">
            <mxRectangle width="205" height="40" as="alternateBounds" />
          </mxGeometry>
        </mxCell>
        <mxCell id="A0Pm9XfwY5P06-nTeu7w-17" value="" style="shape=partialRectangle;collapsible=0;dropTarget=0;pointerEvents=0;fillColor=none;points=[[0,0.5],[1,0.5]];portConstraint=eastwest;top=0;left=0;right=0;bottom=0;" parent="A0Pm9XfwY5P06-nTeu7w-13" vertex="1">
          <mxGeometry y="70" width="245" height="50" as="geometry" />
        </mxCell>
        <mxCell id="A0Pm9XfwY5P06-nTeu7w-18" value="" style="shape=partialRectangle;overflow=hidden;connectable=0;fillColor=none;top=0;left=0;bottom=0;right=0;" parent="A0Pm9XfwY5P06-nTeu7w-17" vertex="1">
          <mxGeometry width="40" height="50" as="geometry">
            <mxRectangle width="40" height="50" as="alternateBounds" />
          </mxGeometry>
        </mxCell>
        <mxCell id="A0Pm9XfwY5P06-nTeu7w-19" value="RoleName varchar(50) NOT NULL" style="shape=partialRectangle;overflow=hidden;connectable=0;fillColor=none;top=0;left=0;bottom=0;right=0;align=left;spacingLeft=6;" parent="A0Pm9XfwY5P06-nTeu7w-17" vertex="1">
          <mxGeometry x="40" width="205" height="50" as="geometry">
            <mxRectangle width="205" height="50" as="alternateBounds" />
          </mxGeometry>
        </mxCell>
        <mxCell id="A0Pm9XfwY5P06-nTeu7w-20" value="OrdersStatus" style="shape=table;startSize=30;container=1;collapsible=1;childLayout=tableLayout;fixedRows=1;rowLines=0;fontStyle=1;align=center;resizeLast=1;" parent="1" vertex="1">
          <mxGeometry x="120" y="860" width="280" height="120" as="geometry" />
        </mxCell>
        <mxCell id="A0Pm9XfwY5P06-nTeu7w-21" value="" style="shape=partialRectangle;collapsible=0;dropTarget=0;pointerEvents=0;fillColor=none;points=[[0,0.5],[1,0.5]];portConstraint=eastwest;top=0;left=0;right=0;bottom=1;" parent="A0Pm9XfwY5P06-nTeu7w-20" vertex="1">
          <mxGeometry y="30" width="280" height="40" as="geometry" />
        </mxCell>
        <mxCell id="A0Pm9XfwY5P06-nTeu7w-22" value="PK" style="shape=partialRectangle;overflow=hidden;connectable=0;fillColor=#dae8fc;top=0;left=0;bottom=0;right=0;fontStyle=1;strokeColor=#6c8ebf;" parent="A0Pm9XfwY5P06-nTeu7w-21" vertex="1">
          <mxGeometry width="40" height="40" as="geometry">
            <mxRectangle width="40" height="40" as="alternateBounds" />
          </mxGeometry>
        </mxCell>
        <mxCell id="A0Pm9XfwY5P06-nTeu7w-23" value="OrderStatusId int " style="shape=partialRectangle;overflow=hidden;connectable=0;fillColor=none;top=0;left=0;bottom=0;right=0;align=left;spacingLeft=6;fontStyle=5;" parent="A0Pm9XfwY5P06-nTeu7w-21" vertex="1">
          <mxGeometry x="40" width="240" height="40" as="geometry">
            <mxRectangle width="240" height="40" as="alternateBounds" />
          </mxGeometry>
        </mxCell>
        <mxCell id="A0Pm9XfwY5P06-nTeu7w-24" value="" style="shape=partialRectangle;collapsible=0;dropTarget=0;pointerEvents=0;fillColor=none;points=[[0,0.5],[1,0.5]];portConstraint=eastwest;top=0;left=0;right=0;bottom=0;" parent="A0Pm9XfwY5P06-nTeu7w-20" vertex="1">
          <mxGeometry y="70" width="280" height="50" as="geometry" />
        </mxCell>
        <mxCell id="A0Pm9XfwY5P06-nTeu7w-25" value="" style="shape=partialRectangle;overflow=hidden;connectable=0;fillColor=none;top=0;left=0;bottom=0;right=0;" parent="A0Pm9XfwY5P06-nTeu7w-24" vertex="1">
          <mxGeometry width="40" height="50" as="geometry">
            <mxRectangle width="40" height="50" as="alternateBounds" />
          </mxGeometry>
        </mxCell>
        <mxCell id="A0Pm9XfwY5P06-nTeu7w-26" value="OrderStatusName varchar(50) NOT NULL" style="shape=partialRectangle;overflow=hidden;connectable=0;fillColor=none;top=0;left=0;bottom=0;right=0;align=left;spacingLeft=6;" parent="A0Pm9XfwY5P06-nTeu7w-24" vertex="1">
          <mxGeometry x="40" width="240" height="50" as="geometry">
            <mxRectangle width="240" height="50" as="alternateBounds" />
          </mxGeometry>
        </mxCell>
        <mxCell id="A0Pm9XfwY5P06-nTeu7w-35" value="FK" style="text;html=1;align=center;verticalAlign=middle;resizable=0;points=[];autosize=1;strokeColor=#d79b00;fillColor=#ffe6cc;movable=0;rotatable=0;deletable=0;editable=0;locked=1;connectable=0;" parent="1" vertex="1">
          <mxGeometry x="450" y="180" width="40" height="30" as="geometry" />
        </mxCell>
        <mxCell id="A0Pm9XfwY5P06-nTeu7w-57" value="Categories" style="shape=table;startSize=30;container=1;collapsible=1;childLayout=tableLayout;fixedRows=1;rowLines=0;fontStyle=1;align=center;resizeLast=1;" parent="1" vertex="1">
          <mxGeometry x="850" y="130" width="260" height="130" as="geometry" />
        </mxCell>
        <mxCell id="A0Pm9XfwY5P06-nTeu7w-58" value="" style="shape=partialRectangle;collapsible=0;dropTarget=0;pointerEvents=0;fillColor=none;points=[[0,0.5],[1,0.5]];portConstraint=eastwest;top=0;left=0;right=0;bottom=1;" parent="A0Pm9XfwY5P06-nTeu7w-57" vertex="1">
          <mxGeometry y="30" width="260" height="30" as="geometry" />
        </mxCell>
        <mxCell id="A0Pm9XfwY5P06-nTeu7w-59" value="PK" style="shape=partialRectangle;overflow=hidden;connectable=0;fillColor=#dae8fc;top=0;left=0;bottom=0;right=0;fontStyle=1;strokeColor=#6c8ebf;" parent="A0Pm9XfwY5P06-nTeu7w-58" vertex="1">
          <mxGeometry width="40" height="30" as="geometry">
            <mxRectangle width="40" height="30" as="alternateBounds" />
          </mxGeometry>
        </mxCell>
        <mxCell id="A0Pm9XfwY5P06-nTeu7w-60" value="CategoryId int" style="shape=partialRectangle;overflow=hidden;connectable=0;fillColor=none;top=0;left=0;bottom=0;right=0;align=left;spacingLeft=6;fontStyle=5;" parent="A0Pm9XfwY5P06-nTeu7w-58" vertex="1">
          <mxGeometry x="40" width="220" height="30" as="geometry">
            <mxRectangle width="220" height="30" as="alternateBounds" />
          </mxGeometry>
        </mxCell>
        <mxCell id="A0Pm9XfwY5P06-nTeu7w-61" value="" style="shape=partialRectangle;collapsible=0;dropTarget=0;pointerEvents=0;fillColor=none;points=[[0,0.5],[1,0.5]];portConstraint=eastwest;top=0;left=0;right=0;bottom=0;" parent="A0Pm9XfwY5P06-nTeu7w-57" vertex="1">
          <mxGeometry y="60" width="260" height="70" as="geometry" />
        </mxCell>
        <mxCell id="A0Pm9XfwY5P06-nTeu7w-62" value="" style="shape=partialRectangle;overflow=hidden;connectable=0;fillColor=none;top=0;left=0;bottom=0;right=0;" parent="A0Pm9XfwY5P06-nTeu7w-61" vertex="1">
          <mxGeometry width="40" height="70" as="geometry">
            <mxRectangle width="40" height="70" as="alternateBounds" />
          </mxGeometry>
        </mxCell>
        <mxCell id="A0Pm9XfwY5P06-nTeu7w-63" value="CategoryName varchar(50) NOT NULL&#xa;&#xa;Description  varchar(50) NOT NULL" style="shape=partialRectangle;overflow=hidden;connectable=0;fillColor=none;top=0;left=0;bottom=0;right=0;align=left;spacingLeft=6;" parent="A0Pm9XfwY5P06-nTeu7w-61" vertex="1">
          <mxGeometry x="40" width="220" height="70" as="geometry">
            <mxRectangle width="220" height="70" as="alternateBounds" />
          </mxGeometry>
        </mxCell>
        <mxCell id="A0Pm9XfwY5P06-nTeu7w-64" value="Products" style="shape=table;startSize=30;container=1;collapsible=1;childLayout=tableLayout;fixedRows=1;rowLines=0;fontStyle=1;align=center;resizeLast=1;" parent="1" vertex="1">
          <mxGeometry x="840" y="320" width="260" height="240" as="geometry" />
        </mxCell>
        <mxCell id="A0Pm9XfwY5P06-nTeu7w-65" value="" style="shape=partialRectangle;collapsible=0;dropTarget=0;pointerEvents=0;fillColor=none;points=[[0,0.5],[1,0.5]];portConstraint=eastwest;top=0;left=0;right=0;bottom=1;" parent="A0Pm9XfwY5P06-nTeu7w-64" vertex="1">
          <mxGeometry y="30" width="260" height="40" as="geometry" />
        </mxCell>
        <mxCell id="A0Pm9XfwY5P06-nTeu7w-66" value="PK" style="shape=partialRectangle;overflow=hidden;connectable=0;fillColor=#dae8fc;top=0;left=0;bottom=0;right=0;fontStyle=1;strokeColor=#6c8ebf;" parent="A0Pm9XfwY5P06-nTeu7w-65" vertex="1">
          <mxGeometry width="40" height="40" as="geometry">
            <mxRectangle width="40" height="40" as="alternateBounds" />
          </mxGeometry>
        </mxCell>
        <mxCell id="A0Pm9XfwY5P06-nTeu7w-67" value="ProductId int" style="shape=partialRectangle;overflow=hidden;connectable=0;fillColor=none;top=0;left=0;bottom=0;right=0;align=left;spacingLeft=6;fontStyle=5;" parent="A0Pm9XfwY5P06-nTeu7w-65" vertex="1">
          <mxGeometry x="40" width="220" height="40" as="geometry">
            <mxRectangle width="220" height="40" as="alternateBounds" />
          </mxGeometry>
        </mxCell>
        <mxCell id="A0Pm9XfwY5P06-nTeu7w-68" value="" style="shape=partialRectangle;collapsible=0;dropTarget=0;pointerEvents=0;fillColor=none;points=[[0,0.5],[1,0.5]];portConstraint=eastwest;top=0;left=0;right=0;bottom=0;" parent="A0Pm9XfwY5P06-nTeu7w-64" vertex="1">
          <mxGeometry y="70" width="260" height="170" as="geometry" />
        </mxCell>
        <mxCell id="A0Pm9XfwY5P06-nTeu7w-69" value="" style="shape=partialRectangle;overflow=hidden;connectable=0;fillColor=none;top=0;left=0;bottom=0;right=0;" parent="A0Pm9XfwY5P06-nTeu7w-68" vertex="1">
          <mxGeometry width="40" height="170" as="geometry">
            <mxRectangle width="40" height="170" as="alternateBounds" />
          </mxGeometry>
        </mxCell>
        <mxCell id="A0Pm9XfwY5P06-nTeu7w-70" value="ProductName varchar(50) NOT NULL&#xa;&#xa;CategoryId: int NOT NULL&#xa;&#xa;Description varchar(50) NOT NULL&#xa;&#xa;Image varchar(250) NOT NULL&#xa;&#xa;Quantity int NOT NULL&#xa;&#xa;Price double NOT NULL" style="shape=partialRectangle;overflow=hidden;connectable=0;fillColor=none;top=0;left=0;bottom=0;right=0;align=left;spacingLeft=6;" parent="A0Pm9XfwY5P06-nTeu7w-68" vertex="1">
          <mxGeometry x="40" width="220" height="170" as="geometry">
            <mxRectangle width="220" height="170" as="alternateBounds" />
          </mxGeometry>
        </mxCell>
        <mxCell id="A0Pm9XfwY5P06-nTeu7w-71" value="FK" style="text;html=1;align=center;verticalAlign=middle;resizable=0;points=[];autosize=1;strokeColor=#d79b00;fillColor=#ffe6cc;movable=0;rotatable=0;deletable=0;editable=0;locked=1;connectable=0;" parent="1" vertex="1">
          <mxGeometry x="840" y="420" width="40" height="30" as="geometry" />
        </mxCell>
        <mxCell id="A0Pm9XfwY5P06-nTeu7w-72" value="Payments" style="shape=table;startSize=30;container=1;collapsible=1;childLayout=tableLayout;fixedRows=1;rowLines=0;fontStyle=1;align=center;resizeLast=1;" parent="1" vertex="1">
          <mxGeometry x="900" y="600" width="260" height="150" as="geometry" />
        </mxCell>
        <mxCell id="A0Pm9XfwY5P06-nTeu7w-73" value="" style="shape=partialRectangle;collapsible=0;dropTarget=0;pointerEvents=0;fillColor=none;points=[[0,0.5],[1,0.5]];portConstraint=eastwest;top=0;left=0;right=0;bottom=1;" parent="A0Pm9XfwY5P06-nTeu7w-72" vertex="1">
          <mxGeometry y="30" width="260" height="30" as="geometry" />
        </mxCell>
        <mxCell id="A0Pm9XfwY5P06-nTeu7w-74" value="PK" style="shape=partialRectangle;overflow=hidden;connectable=0;fillColor=#dae8fc;top=0;left=0;bottom=0;right=0;fontStyle=1;strokeColor=#6c8ebf;" parent="A0Pm9XfwY5P06-nTeu7w-73" vertex="1">
          <mxGeometry width="40" height="30" as="geometry">
            <mxRectangle width="40" height="30" as="alternateBounds" />
          </mxGeometry>
        </mxCell>
        <mxCell id="A0Pm9XfwY5P06-nTeu7w-75" value="PaymentId int" style="shape=partialRectangle;overflow=hidden;connectable=0;fillColor=none;top=0;left=0;bottom=0;right=0;align=left;spacingLeft=6;fontStyle=5;" parent="A0Pm9XfwY5P06-nTeu7w-73" vertex="1">
          <mxGeometry x="40" width="220" height="30" as="geometry">
            <mxRectangle width="220" height="30" as="alternateBounds" />
          </mxGeometry>
        </mxCell>
        <mxCell id="A0Pm9XfwY5P06-nTeu7w-76" value="" style="shape=partialRectangle;collapsible=0;dropTarget=0;pointerEvents=0;fillColor=none;points=[[0,0.5],[1,0.5]];portConstraint=eastwest;top=0;left=0;right=0;bottom=0;" parent="A0Pm9XfwY5P06-nTeu7w-72" vertex="1">
          <mxGeometry y="60" width="260" height="90" as="geometry" />
        </mxCell>
        <mxCell id="A0Pm9XfwY5P06-nTeu7w-77" value="" style="shape=partialRectangle;overflow=hidden;connectable=0;fillColor=none;top=0;left=0;bottom=0;right=0;" parent="A0Pm9XfwY5P06-nTeu7w-76" vertex="1">
          <mxGeometry width="40" height="90" as="geometry">
            <mxRectangle width="40" height="90" as="alternateBounds" />
          </mxGeometry>
        </mxCell>
        <mxCell id="A0Pm9XfwY5P06-nTeu7w-78" value="OrderId int NOT NULL&#xa;&#xa;PaymentStatusId int NOT NULL&#xa;&#xa;Amount double NOT NULL" style="shape=partialRectangle;overflow=hidden;connectable=0;fillColor=none;top=0;left=0;bottom=0;right=0;align=left;spacingLeft=6;" parent="A0Pm9XfwY5P06-nTeu7w-76" vertex="1">
          <mxGeometry x="40" width="220" height="90" as="geometry">
            <mxRectangle width="220" height="90" as="alternateBounds" />
          </mxGeometry>
        </mxCell>
        <mxCell id="A0Pm9XfwY5P06-nTeu7w-79" value="FK" style="text;html=1;align=center;verticalAlign=middle;resizable=1;points=[];autosize=1;strokeColor=#d79b00;fillColor=#ffe6cc;movable=1;rotatable=1;deletable=1;editable=1;locked=0;connectable=1;" parent="1" vertex="1">
          <mxGeometry x="900" y="660" width="40" height="30" as="geometry" />
        </mxCell>
        <mxCell id="A0Pm9XfwY5P06-nTeu7w-80" value="FK" style="text;html=1;align=center;verticalAlign=middle;resizable=1;points=[];autosize=1;strokeColor=#d79b00;fillColor=#ffe6cc;movable=1;rotatable=1;deletable=1;editable=1;locked=0;connectable=1;" parent="1" vertex="1">
          <mxGeometry x="900" y="690" width="40" height="30" as="geometry" />
        </mxCell>
        <mxCell id="A0Pm9XfwY5P06-nTeu7w-82" value="PaymentsStatus" style="shape=table;startSize=30;container=1;collapsible=1;childLayout=tableLayout;fixedRows=1;rowLines=0;fontStyle=1;align=center;resizeLast=1;" parent="1" vertex="1">
          <mxGeometry x="880" y="840" width="300" height="100" as="geometry" />
        </mxCell>
        <mxCell id="A0Pm9XfwY5P06-nTeu7w-83" value="" style="shape=partialRectangle;collapsible=0;dropTarget=0;pointerEvents=0;fillColor=none;points=[[0,0.5],[1,0.5]];portConstraint=eastwest;top=0;left=0;right=0;bottom=1;" parent="A0Pm9XfwY5P06-nTeu7w-82" vertex="1">
          <mxGeometry y="30" width="300" height="30" as="geometry" />
        </mxCell>
        <mxCell id="A0Pm9XfwY5P06-nTeu7w-84" value="PK" style="shape=partialRectangle;overflow=hidden;connectable=0;fillColor=#dae8fc;top=0;left=0;bottom=0;right=0;fontStyle=1;strokeColor=#6c8ebf;" parent="A0Pm9XfwY5P06-nTeu7w-83" vertex="1">
          <mxGeometry width="40" height="30" as="geometry">
            <mxRectangle width="40" height="30" as="alternateBounds" />
          </mxGeometry>
        </mxCell>
        <mxCell id="A0Pm9XfwY5P06-nTeu7w-85" value="PaymentStatusId int" style="shape=partialRectangle;overflow=hidden;connectable=0;fillColor=none;top=0;left=0;bottom=0;right=0;align=left;spacingLeft=6;fontStyle=5;" parent="A0Pm9XfwY5P06-nTeu7w-83" vertex="1">
          <mxGeometry x="40" width="260" height="30" as="geometry">
            <mxRectangle width="260" height="30" as="alternateBounds" />
          </mxGeometry>
        </mxCell>
        <mxCell id="A0Pm9XfwY5P06-nTeu7w-86" value="" style="shape=partialRectangle;collapsible=0;dropTarget=0;pointerEvents=0;fillColor=none;points=[[0,0.5],[1,0.5]];portConstraint=eastwest;top=0;left=0;right=0;bottom=0;" parent="A0Pm9XfwY5P06-nTeu7w-82" vertex="1">
          <mxGeometry y="60" width="300" height="40" as="geometry" />
        </mxCell>
        <mxCell id="A0Pm9XfwY5P06-nTeu7w-87" value="" style="shape=partialRectangle;overflow=hidden;connectable=0;fillColor=none;top=0;left=0;bottom=0;right=0;" parent="A0Pm9XfwY5P06-nTeu7w-86" vertex="1">
          <mxGeometry width="40" height="40" as="geometry">
            <mxRectangle width="40" height="40" as="alternateBounds" />
          </mxGeometry>
        </mxCell>
        <mxCell id="A0Pm9XfwY5P06-nTeu7w-88" value="PaymentStatusName varchar(50) NOT NULL" style="shape=partialRectangle;overflow=hidden;connectable=0;fillColor=none;top=0;left=0;bottom=0;right=0;align=left;spacingLeft=6;" parent="A0Pm9XfwY5P06-nTeu7w-86" vertex="1">
          <mxGeometry x="40" width="260" height="40" as="geometry">
            <mxRectangle width="260" height="40" as="alternateBounds" />
          </mxGeometry>
        </mxCell>
        <mxCell id="A0Pm9XfwY5P06-nTeu7w-96" value="PaymentMethodsTypes" style="shape=table;startSize=30;container=1;collapsible=1;childLayout=tableLayout;fixedRows=1;rowLines=0;fontStyle=1;align=center;resizeLast=1;" parent="1" vertex="1">
          <mxGeometry x="830" y="1010" width="330" height="100" as="geometry" />
        </mxCell>
        <mxCell id="A0Pm9XfwY5P06-nTeu7w-97" value="" style="shape=partialRectangle;collapsible=0;dropTarget=0;pointerEvents=0;fillColor=none;points=[[0,0.5],[1,0.5]];portConstraint=eastwest;top=0;left=0;right=0;bottom=1;" parent="A0Pm9XfwY5P06-nTeu7w-96" vertex="1">
          <mxGeometry y="30" width="330" height="30" as="geometry" />
        </mxCell>
        <mxCell id="A0Pm9XfwY5P06-nTeu7w-98" value="PK" style="shape=partialRectangle;overflow=hidden;connectable=0;fillColor=#dae8fc;top=0;left=0;bottom=0;right=0;fontStyle=1;strokeColor=#6c8ebf;" parent="A0Pm9XfwY5P06-nTeu7w-97" vertex="1">
          <mxGeometry width="40" height="30" as="geometry">
            <mxRectangle width="40" height="30" as="alternateBounds" />
          </mxGeometry>
        </mxCell>
        <mxCell id="A0Pm9XfwY5P06-nTeu7w-99" value="PaymentMethodTypeId int" style="shape=partialRectangle;overflow=hidden;connectable=0;fillColor=none;top=0;left=0;bottom=0;right=0;align=left;spacingLeft=6;fontStyle=5;" parent="A0Pm9XfwY5P06-nTeu7w-97" vertex="1">
          <mxGeometry x="40" width="290" height="30" as="geometry">
            <mxRectangle width="290" height="30" as="alternateBounds" />
          </mxGeometry>
        </mxCell>
        <mxCell id="A0Pm9XfwY5P06-nTeu7w-100" value="" style="shape=partialRectangle;collapsible=0;dropTarget=0;pointerEvents=0;fillColor=none;points=[[0,0.5],[1,0.5]];portConstraint=eastwest;top=0;left=0;right=0;bottom=0;" parent="A0Pm9XfwY5P06-nTeu7w-96" vertex="1">
          <mxGeometry y="60" width="330" height="40" as="geometry" />
        </mxCell>
        <mxCell id="A0Pm9XfwY5P06-nTeu7w-101" value="" style="shape=partialRectangle;overflow=hidden;connectable=0;fillColor=none;top=0;left=0;bottom=0;right=0;" parent="A0Pm9XfwY5P06-nTeu7w-100" vertex="1">
          <mxGeometry width="40" height="40" as="geometry">
            <mxRectangle width="40" height="40" as="alternateBounds" />
          </mxGeometry>
        </mxCell>
        <mxCell id="A0Pm9XfwY5P06-nTeu7w-102" value="PaymentMethodTypeName varchar(50) NOT NULL" style="shape=partialRectangle;overflow=hidden;connectable=0;fillColor=none;top=0;left=0;bottom=0;right=0;align=left;spacingLeft=6;" parent="A0Pm9XfwY5P06-nTeu7w-100" vertex="1">
          <mxGeometry x="40" width="290" height="40" as="geometry">
            <mxRectangle width="290" height="40" as="alternateBounds" />
          </mxGeometry>
        </mxCell>
        <mxCell id="A0Pm9XfwY5P06-nTeu7w-103" value="PaymentMethods" style="shape=table;startSize=30;container=1;collapsible=1;childLayout=tableLayout;fixedRows=1;rowLines=0;fontStyle=1;align=center;resizeLast=1;" parent="1" vertex="1">
          <mxGeometry x="461" y="900" width="330" height="290" as="geometry" />
        </mxCell>
        <mxCell id="A0Pm9XfwY5P06-nTeu7w-104" value="" style="shape=partialRectangle;collapsible=0;dropTarget=0;pointerEvents=0;fillColor=none;points=[[0,0.5],[1,0.5]];portConstraint=eastwest;top=0;left=0;right=0;bottom=1;" parent="A0Pm9XfwY5P06-nTeu7w-103" vertex="1">
          <mxGeometry y="30" width="330" height="30" as="geometry" />
        </mxCell>
        <mxCell id="A0Pm9XfwY5P06-nTeu7w-105" value="PK" style="shape=partialRectangle;overflow=hidden;connectable=0;fillColor=#dae8fc;top=0;left=0;bottom=0;right=0;fontStyle=1;strokeColor=#6c8ebf;" parent="A0Pm9XfwY5P06-nTeu7w-104" vertex="1">
          <mxGeometry width="40" height="30" as="geometry">
            <mxRectangle width="40" height="30" as="alternateBounds" />
          </mxGeometry>
        </mxCell>
        <mxCell id="A0Pm9XfwY5P06-nTeu7w-106" value="PaymentMethodTypeId int" style="shape=partialRectangle;overflow=hidden;connectable=0;fillColor=none;top=0;left=0;bottom=0;right=0;align=left;spacingLeft=6;fontStyle=5;" parent="A0Pm9XfwY5P06-nTeu7w-104" vertex="1">
          <mxGeometry x="40" width="290" height="30" as="geometry">
            <mxRectangle width="290" height="30" as="alternateBounds" />
          </mxGeometry>
        </mxCell>
        <mxCell id="A0Pm9XfwY5P06-nTeu7w-107" value="" style="shape=partialRectangle;collapsible=0;dropTarget=0;pointerEvents=0;fillColor=none;points=[[0,0.5],[1,0.5]];portConstraint=eastwest;top=0;left=0;right=0;bottom=0;" parent="A0Pm9XfwY5P06-nTeu7w-103" vertex="1">
          <mxGeometry y="60" width="330" height="230" as="geometry" />
        </mxCell>
        <mxCell id="A0Pm9XfwY5P06-nTeu7w-108" value="" style="shape=partialRectangle;overflow=hidden;connectable=0;fillColor=none;top=0;left=0;bottom=0;right=0;" parent="A0Pm9XfwY5P06-nTeu7w-107" vertex="1">
          <mxGeometry width="40" height="230" as="geometry">
            <mxRectangle width="40" height="230" as="alternateBounds" />
          </mxGeometry>
        </mxCell>
        <mxCell id="A0Pm9XfwY5P06-nTeu7w-109" value="PaymentMethodTypeId int NOT NULL&#xa;&#xa;CustomerId int NOT NULL&#xa;&#xa;EmailPayPal varchar(50) UNIQUE CHECK&#xa;&#xa;PasswordPayPal varchar(50) CHECK&#xa;&#xa;CardNumberId int UNIQUE CHECK&#xa;&#xa;CardHolderName varchar(50) CHECK&#xa;&#xa;ExpiryDate datetima CHECK&#xa;&#xa;SecurityCode int CHECK" style="shape=partialRectangle;overflow=hidden;connectable=0;fillColor=none;top=0;left=0;bottom=0;right=0;align=left;spacingLeft=6;fontStyle=0" parent="A0Pm9XfwY5P06-nTeu7w-107" vertex="1">
          <mxGeometry x="40" width="290" height="230" as="geometry">
            <mxRectangle width="290" height="230" as="alternateBounds" />
          </mxGeometry>
        </mxCell>
        <mxCell id="A0Pm9XfwY5P06-nTeu7w-110" value="FK" style="text;html=1;align=center;verticalAlign=middle;resizable=0;points=[];autosize=1;strokeColor=#d79b00;fillColor=#ffe6cc;movable=0;rotatable=0;deletable=0;editable=0;locked=1;connectable=0;" parent="1" vertex="1">
          <mxGeometry x="460" y="960" width="40" height="30" as="geometry" />
        </mxCell>
        <mxCell id="A0Pm9XfwY5P06-nTeu7w-115" value="&lt;b&gt;1&lt;/b&gt;" style="text;html=1;align=center;verticalAlign=middle;resizable=0;points=[];autosize=1;strokeColor=none;fillColor=none;" parent="1" vertex="1">
          <mxGeometry x="135" y="690" width="30" height="30" as="geometry" />
        </mxCell>
        <mxCell id="A0Pm9XfwY5P06-nTeu7w-116" value="&lt;b&gt;N&lt;/b&gt;" style="text;html=1;align=center;verticalAlign=middle;resizable=0;points=[];autosize=1;strokeColor=none;fillColor=none;" parent="1" vertex="1">
          <mxGeometry x="100" y="310" width="30" height="30" as="geometry" />
        </mxCell>
        <mxCell id="A0Pm9XfwY5P06-nTeu7w-124" value="&lt;b&gt;N&lt;/b&gt;" style="text;html=1;align=center;verticalAlign=middle;resizable=0;points=[];autosize=1;strokeColor=none;fillColor=none;" parent="1" vertex="1">
          <mxGeometry x="420" y="440" width="30" height="30" as="geometry" />
        </mxCell>
        <mxCell id="A0Pm9XfwY5P06-nTeu7w-125" value="" style="edgeStyle=orthogonalEdgeStyle;fontSize=12;html=1;endArrow=ERzeroToMany;startArrow=ERmandOne;rounded=0;entryX=-0.014;entryY=0.358;entryDx=0;entryDy=0;entryPerimeter=0;exitX=1;exitY=0.5;exitDx=0;exitDy=0;" parent="1" source="A0Pm9XfwY5P06-nTeu7w-7" target="C-vyLk0tnHw3VtMMgP7b-17" edge="1">
          <mxGeometry width="100" height="100" relative="1" as="geometry">
            <mxPoint x="350" y="460" as="sourcePoint" />
            <mxPoint x="447.8100000000002" y="466.8100000000002" as="targetPoint" />
          </mxGeometry>
        </mxCell>
        <mxCell id="A0Pm9XfwY5P06-nTeu7w-123" value="&lt;b&gt;1&lt;/b&gt;" style="text;html=1;align=center;verticalAlign=middle;resizable=0;points=[];autosize=1;strokeColor=none;fillColor=none;" parent="1" vertex="1">
          <mxGeometry x="350" y="460" width="30" height="30" as="geometry" />
        </mxCell>
        <mxCell id="A0Pm9XfwY5P06-nTeu7w-127" value="FK" style="text;html=1;align=center;verticalAlign=middle;resizable=0;points=[];autosize=1;strokeColor=#d79b00;fillColor=#ffe6cc;movable=0;rotatable=0;deletable=0;editable=0;locked=1;connectable=0;" parent="1" vertex="1">
          <mxGeometry x="461" y="990" width="40" height="30" as="geometry" />
        </mxCell>
        <mxCell id="A0Pm9XfwY5P06-nTeu7w-128" value="" style="edgeStyle=orthogonalEdgeStyle;fontSize=12;html=1;endArrow=ERmandOne;startArrow=ERmandOne;rounded=0;entryX=-0.011;entryY=0.27;entryDx=0;entryDy=0;entryPerimeter=0;exitX=0;exitY=0.5;exitDx=0;exitDy=0;" parent="1" source="C-vyLk0tnHw3VtMMgP7b-14" target="C-vyLk0tnHw3VtMMgP7b-9" edge="1">
          <mxGeometry width="100" height="100" relative="1" as="geometry">
            <mxPoint x="420" y="330" as="sourcePoint" />
            <mxPoint x="420" y="330" as="targetPoint" />
            <Array as="points">
              <mxPoint x="430" y="405" />
              <mxPoint x="430" y="204" />
            </Array>
          </mxGeometry>
        </mxCell>
        <mxCell id="A0Pm9XfwY5P06-nTeu7w-129" value="&lt;b&gt;1&lt;/b&gt;" style="text;html=1;align=center;verticalAlign=middle;resizable=0;points=[];autosize=1;strokeColor=none;fillColor=none;" parent="1" vertex="1">
          <mxGeometry x="431" y="380" width="30" height="30" as="geometry" />
        </mxCell>
        <mxCell id="A0Pm9XfwY5P06-nTeu7w-131" value="&lt;b&gt;1&lt;/b&gt;" style="text;html=1;align=center;verticalAlign=middle;resizable=0;points=[];autosize=1;strokeColor=none;fillColor=none;" parent="1" vertex="1">
          <mxGeometry x="420" y="170" width="30" height="30" as="geometry" />
        </mxCell>
        <mxCell id="A0Pm9XfwY5P06-nTeu7w-132" value="" style="edgeStyle=orthogonalEdgeStyle;fontSize=12;html=1;endArrow=ERmandOne;startArrow=ERmandOne;rounded=0;" parent="1" edge="1">
          <mxGeometry width="100" height="100" relative="1" as="geometry">
            <mxPoint x="470" y="530" as="sourcePoint" />
            <mxPoint x="360" y="230" as="targetPoint" />
            <Array as="points">
              <mxPoint x="401" y="530" />
              <mxPoint x="401" y="230" />
            </Array>
          </mxGeometry>
        </mxCell>
        <mxCell id="A0Pm9XfwY5P06-nTeu7w-133" value="&lt;b&gt;1&lt;/b&gt;" style="text;html=1;align=center;verticalAlign=middle;resizable=0;points=[];autosize=1;strokeColor=none;fillColor=none;" parent="1" vertex="1">
          <mxGeometry x="431" y="530" width="30" height="30" as="geometry" />
        </mxCell>
        <mxCell id="A0Pm9XfwY5P06-nTeu7w-134" value="&lt;b&gt;1&lt;/b&gt;" style="text;html=1;align=center;verticalAlign=middle;resizable=0;points=[];autosize=1;strokeColor=none;fillColor=none;" parent="1" vertex="1">
          <mxGeometry x="360" y="190" width="30" height="30" as="geometry" />
        </mxCell>
        <mxCell id="A0Pm9XfwY5P06-nTeu7w-135" value="" style="group" parent="1" vertex="1" connectable="0">
          <mxGeometry x="480" y="640" width="271" height="210" as="geometry" />
        </mxCell>
        <mxCell id="A0Pm9XfwY5P06-nTeu7w-40" value="Orders" style="shape=table;startSize=30;container=1;collapsible=1;childLayout=tableLayout;fixedRows=1;rowLines=0;fontStyle=1;align=center;resizeLast=1;" parent="A0Pm9XfwY5P06-nTeu7w-135" vertex="1">
          <mxGeometry width="270" height="210" as="geometry" />
        </mxCell>
        <mxCell id="A0Pm9XfwY5P06-nTeu7w-41" value="" style="shape=partialRectangle;collapsible=0;dropTarget=0;pointerEvents=0;fillColor=none;points=[[0,0.5],[1,0.5]];portConstraint=eastwest;top=0;left=0;right=0;bottom=1;" parent="A0Pm9XfwY5P06-nTeu7w-40" vertex="1">
          <mxGeometry y="30" width="270" height="30" as="geometry" />
        </mxCell>
        <mxCell id="A0Pm9XfwY5P06-nTeu7w-42" value="PK" style="shape=partialRectangle;overflow=hidden;connectable=0;fillColor=#dae8fc;top=0;left=0;bottom=0;right=0;fontStyle=1;strokeColor=#6c8ebf;" parent="A0Pm9XfwY5P06-nTeu7w-41" vertex="1">
          <mxGeometry width="40" height="30" as="geometry">
            <mxRectangle width="40" height="30" as="alternateBounds" />
          </mxGeometry>
        </mxCell>
        <mxCell id="A0Pm9XfwY5P06-nTeu7w-43" value="OrderId int" style="shape=partialRectangle;overflow=hidden;connectable=0;fillColor=none;top=0;left=0;bottom=0;right=0;align=left;spacingLeft=6;fontStyle=5;" parent="A0Pm9XfwY5P06-nTeu7w-41" vertex="1">
          <mxGeometry x="40" width="230" height="30" as="geometry">
            <mxRectangle width="230" height="30" as="alternateBounds" />
          </mxGeometry>
        </mxCell>
        <mxCell id="A0Pm9XfwY5P06-nTeu7w-44" value="" style="shape=partialRectangle;collapsible=0;dropTarget=0;pointerEvents=0;fillColor=none;points=[[0,0.5],[1,0.5]];portConstraint=eastwest;top=0;left=0;right=0;bottom=0;" parent="A0Pm9XfwY5P06-nTeu7w-40" vertex="1">
          <mxGeometry y="60" width="270" height="150" as="geometry" />
        </mxCell>
        <mxCell id="A0Pm9XfwY5P06-nTeu7w-45" value="" style="shape=partialRectangle;overflow=hidden;connectable=0;fillColor=none;top=0;left=0;bottom=0;right=0;" parent="A0Pm9XfwY5P06-nTeu7w-44" vertex="1">
          <mxGeometry width="40" height="150" as="geometry">
            <mxRectangle width="40" height="150" as="alternateBounds" />
          </mxGeometry>
        </mxCell>
        <mxCell id="A0Pm9XfwY5P06-nTeu7w-46" value="CustomerId int NOT NULL&#xa;&#xa;PaymentId int NOT NULL&#xa;&#xa;OrderDate datetime NOT NULL&#xa;&#xa;OrderStatusId int NOT NULL&#xa;&#xa;Quantity int NOT NULL" style="shape=partialRectangle;overflow=hidden;connectable=0;fillColor=none;top=0;left=0;bottom=0;right=0;align=left;spacingLeft=6;" parent="A0Pm9XfwY5P06-nTeu7w-44" vertex="1">
          <mxGeometry x="40" width="230" height="150" as="geometry">
            <mxRectangle width="230" height="150" as="alternateBounds" />
          </mxGeometry>
        </mxCell>
        <mxCell id="A0Pm9XfwY5P06-nTeu7w-47" value="FK" style="text;html=1;align=center;verticalAlign=middle;resizable=0;points=[];autosize=1;strokeColor=#d79b00;fillColor=#ffe6cc;movable=0;rotatable=0;deletable=0;editable=0;locked=1;connectable=0;" parent="A0Pm9XfwY5P06-nTeu7w-135" vertex="1">
          <mxGeometry y="150" width="40" height="30" as="geometry" />
        </mxCell>
        <mxCell id="A0Pm9XfwY5P06-nTeu7w-48" value="FK" style="text;html=1;align=center;verticalAlign=middle;resizable=0;points=[];autosize=1;strokeColor=#d79b00;fillColor=#ffe6cc;movable=0;rotatable=0;deletable=0;editable=0;locked=1;connectable=0;" parent="A0Pm9XfwY5P06-nTeu7w-135" vertex="1">
          <mxGeometry y="90" width="40" height="30" as="geometry" />
        </mxCell>
        <mxCell id="A0Pm9XfwY5P06-nTeu7w-49" value="FK" style="text;html=1;align=center;verticalAlign=middle;resizable=0;points=[];autosize=1;strokeColor=#d79b00;fillColor=#ffe6cc;movable=0;rotatable=0;deletable=0;editable=0;locked=1;connectable=0;" parent="A0Pm9XfwY5P06-nTeu7w-135" vertex="1">
          <mxGeometry y="60" width="40" height="30" as="geometry" />
        </mxCell>
        <mxCell id="A0Pm9XfwY5P06-nTeu7w-136" value="" style="group" parent="1" vertex="1" connectable="0">
          <mxGeometry x="470" y="360" width="271" height="180" as="geometry" />
        </mxCell>
        <mxCell id="C-vyLk0tnHw3VtMMgP7b-13" value="Customers" style="shape=table;startSize=30;container=1;collapsible=1;childLayout=tableLayout;fixedRows=1;rowLines=0;fontStyle=1;align=center;resizeLast=1;" parent="A0Pm9XfwY5P06-nTeu7w-136" vertex="1">
          <mxGeometry x="1" width="270" height="180" as="geometry" />
        </mxCell>
        <mxCell id="C-vyLk0tnHw3VtMMgP7b-14" value="" style="shape=partialRectangle;collapsible=0;dropTarget=0;pointerEvents=0;fillColor=none;points=[[0,0.5],[1,0.5]];portConstraint=eastwest;top=0;left=0;right=0;bottom=1;" parent="C-vyLk0tnHw3VtMMgP7b-13" vertex="1">
          <mxGeometry y="30" width="270" height="30" as="geometry" />
        </mxCell>
        <mxCell id="C-vyLk0tnHw3VtMMgP7b-15" value="PK" style="shape=partialRectangle;overflow=hidden;connectable=0;fillColor=#dae8fc;top=0;left=0;bottom=0;right=0;fontStyle=1;strokeColor=#6c8ebf;" parent="C-vyLk0tnHw3VtMMgP7b-14" vertex="1">
          <mxGeometry width="40" height="30" as="geometry">
            <mxRectangle width="40" height="30" as="alternateBounds" />
          </mxGeometry>
        </mxCell>
        <mxCell id="C-vyLk0tnHw3VtMMgP7b-16" value="CustomerId int" style="shape=partialRectangle;overflow=hidden;connectable=0;fillColor=none;top=0;left=0;bottom=0;right=0;align=left;spacingLeft=6;fontStyle=5;" parent="C-vyLk0tnHw3VtMMgP7b-14" vertex="1">
          <mxGeometry x="40" width="230" height="30" as="geometry">
            <mxRectangle width="230" height="30" as="alternateBounds" />
          </mxGeometry>
        </mxCell>
        <mxCell id="C-vyLk0tnHw3VtMMgP7b-17" value="" style="shape=partialRectangle;collapsible=0;dropTarget=0;pointerEvents=0;fillColor=none;points=[[0,0.5],[1,0.5]];portConstraint=eastwest;top=0;left=0;right=0;bottom=0;" parent="C-vyLk0tnHw3VtMMgP7b-13" vertex="1">
          <mxGeometry y="60" width="270" height="120" as="geometry" />
        </mxCell>
        <mxCell id="C-vyLk0tnHw3VtMMgP7b-18" value="" style="shape=partialRectangle;overflow=hidden;connectable=0;fillColor=none;top=0;left=0;bottom=0;right=0;" parent="C-vyLk0tnHw3VtMMgP7b-17" vertex="1">
          <mxGeometry width="40" height="120" as="geometry">
            <mxRectangle width="40" height="120" as="alternateBounds" />
          </mxGeometry>
        </mxCell>
        <mxCell id="C-vyLk0tnHw3VtMMgP7b-19" value=" CustomerName varchar(50) NOT NULL&#xa;&#xa; AddressId int NOT NULL&#xa;&#xa; PhoneNumber int NOT NULL&#xa;&#xa; UserId int NOT NULL" style="shape=partialRectangle;overflow=hidden;connectable=0;fillColor=none;top=0;left=0;bottom=0;right=0;align=left;spacingLeft=6;" parent="C-vyLk0tnHw3VtMMgP7b-17" vertex="1">
          <mxGeometry x="40" width="230" height="120" as="geometry">
            <mxRectangle width="230" height="120" as="alternateBounds" />
          </mxGeometry>
        </mxCell>
        <mxCell id="A0Pm9XfwY5P06-nTeu7w-36" value="FK" style="text;html=1;align=center;verticalAlign=middle;resizable=0;points=[];autosize=1;strokeColor=#d79b00;fillColor=#ffe6cc;movable=0;rotatable=0;deletable=0;editable=0;locked=1;connectable=0;" parent="A0Pm9XfwY5P06-nTeu7w-136" vertex="1">
          <mxGeometry y="150" width="41" height="30" as="geometry" />
        </mxCell>
        <mxCell id="A0Pm9XfwY5P06-nTeu7w-39" value="FK" style="text;html=1;align=center;verticalAlign=middle;resizable=0;points=[];autosize=1;strokeColor=#d79b00;fillColor=#ffe6cc;movable=0;rotatable=0;deletable=0;editable=0;locked=1;connectable=0;" parent="A0Pm9XfwY5P06-nTeu7w-136" vertex="1">
          <mxGeometry y="90" width="40" height="30" as="geometry" />
        </mxCell>
        <mxCell id="A0Pm9XfwY5P06-nTeu7w-138" value="" style="group" parent="1" vertex="1" connectable="0">
          <mxGeometry x="110" y="170" width="250" height="180" as="geometry" />
        </mxCell>
        <mxCell id="C-vyLk0tnHw3VtMMgP7b-23" value="Users" style="shape=table;startSize=30;container=1;collapsible=1;childLayout=tableLayout;fixedRows=1;rowLines=0;fontStyle=1;align=center;resizeLast=1;" parent="A0Pm9XfwY5P06-nTeu7w-138" vertex="1">
          <mxGeometry width="250" height="180" as="geometry" />
        </mxCell>
        <mxCell id="C-vyLk0tnHw3VtMMgP7b-24" value="" style="shape=partialRectangle;collapsible=0;dropTarget=0;pointerEvents=0;fillColor=none;points=[[0,0.5],[1,0.5]];portConstraint=eastwest;top=0;left=0;right=0;bottom=1;" parent="C-vyLk0tnHw3VtMMgP7b-23" vertex="1">
          <mxGeometry y="30" width="250" height="40" as="geometry" />
        </mxCell>
        <mxCell id="C-vyLk0tnHw3VtMMgP7b-25" value="PK" style="shape=partialRectangle;overflow=hidden;connectable=0;fillColor=#dae8fc;top=0;left=0;bottom=0;right=0;fontStyle=1;strokeColor=#6c8ebf;" parent="C-vyLk0tnHw3VtMMgP7b-24" vertex="1">
          <mxGeometry width="40" height="40" as="geometry">
            <mxRectangle width="40" height="40" as="alternateBounds" />
          </mxGeometry>
        </mxCell>
        <mxCell id="C-vyLk0tnHw3VtMMgP7b-26" value="UserId int " style="shape=partialRectangle;overflow=hidden;connectable=0;fillColor=none;top=0;left=0;bottom=0;right=0;align=left;spacingLeft=6;fontStyle=5;" parent="C-vyLk0tnHw3VtMMgP7b-24" vertex="1">
          <mxGeometry x="40" width="210" height="40" as="geometry">
            <mxRectangle width="210" height="40" as="alternateBounds" />
          </mxGeometry>
        </mxCell>
        <mxCell id="C-vyLk0tnHw3VtMMgP7b-27" value="" style="shape=partialRectangle;collapsible=0;dropTarget=0;pointerEvents=0;fillColor=none;points=[[0,0.5],[1,0.5]];portConstraint=eastwest;top=0;left=0;right=0;bottom=0;" parent="C-vyLk0tnHw3VtMMgP7b-23" vertex="1">
          <mxGeometry y="70" width="250" height="110" as="geometry" />
        </mxCell>
        <mxCell id="C-vyLk0tnHw3VtMMgP7b-28" value="" style="shape=partialRectangle;overflow=hidden;connectable=0;fillColor=none;top=0;left=0;bottom=0;right=0;" parent="C-vyLk0tnHw3VtMMgP7b-27" vertex="1">
          <mxGeometry width="40" height="110" as="geometry">
            <mxRectangle width="40" height="110" as="alternateBounds" />
          </mxGeometry>
        </mxCell>
        <mxCell id="C-vyLk0tnHw3VtMMgP7b-29" value="Email varchar(50) NOT NULL&#xa;&#xa;Username varchar(50) NOT NULL&#xa;&#xa;Password varchar(50) NOT NULL&#xa;&#xa;Role int NOT NULL" style="shape=partialRectangle;overflow=hidden;connectable=0;fillColor=none;top=0;left=0;bottom=0;right=0;align=left;spacingLeft=6;" parent="C-vyLk0tnHw3VtMMgP7b-27" vertex="1">
          <mxGeometry x="40" width="210" height="110" as="geometry">
            <mxRectangle width="210" height="110" as="alternateBounds" />
          </mxGeometry>
        </mxCell>
        <mxCell id="A0Pm9XfwY5P06-nTeu7w-5" value="FK" style="text;html=1;align=center;verticalAlign=middle;resizable=0;points=[];autosize=1;strokeColor=#d79b00;fillColor=#ffe6cc;movable=0;rotatable=0;deletable=0;editable=0;locked=1;connectable=0;" parent="A0Pm9XfwY5P06-nTeu7w-138" vertex="1">
          <mxGeometry y="150" width="40" height="30" as="geometry" />
        </mxCell>
        <mxCell id="A0Pm9XfwY5P06-nTeu7w-140" value="" style="edgeStyle=orthogonalEdgeStyle;fontSize=12;html=1;endArrow=ERzeroToMany;startArrow=ERmandOne;rounded=0;exitX=0;exitY=0.5;exitDx=0;exitDy=0;" parent="1" source="A0Pm9XfwY5P06-nTeu7w-14" edge="1">
          <mxGeometry width="100" height="100" relative="1" as="geometry">
            <mxPoint x="540" y="410" as="sourcePoint" />
            <mxPoint x="110" y="339" as="targetPoint" />
            <Array as="points">
              <mxPoint x="60" y="720" />
              <mxPoint x="60" y="339" />
            </Array>
          </mxGeometry>
        </mxCell>
        <mxCell id="A0Pm9XfwY5P06-nTeu7w-141" value="&lt;b&gt;N&lt;/b&gt;" style="text;html=1;align=center;verticalAlign=middle;resizable=0;points=[];autosize=1;strokeColor=none;fillColor=none;" parent="1" vertex="1">
          <mxGeometry x="80" y="310" width="30" height="30" as="geometry" />
        </mxCell>
        <mxCell id="A0Pm9XfwY5P06-nTeu7w-142" value="" style="edgeStyle=orthogonalEdgeStyle;fontSize=12;html=1;endArrow=ERzeroToMany;startArrow=ERmandOne;rounded=0;exitX=0;exitY=0.5;exitDx=0;exitDy=0;" parent="1" source="A0Pm9XfwY5P06-nTeu7w-58" edge="1">
          <mxGeometry width="100" height="100" relative="1" as="geometry">
            <mxPoint x="740" y="350" as="sourcePoint" />
            <mxPoint x="840.94" y="440" as="targetPoint" />
            <Array as="points">
              <mxPoint x="810" y="175" />
              <mxPoint x="810" y="440" />
            </Array>
          </mxGeometry>
        </mxCell>
        <mxCell id="A0Pm9XfwY5P06-nTeu7w-143" value="&lt;b&gt;N&lt;/b&gt;" style="text;html=1;align=center;verticalAlign=middle;resizable=0;points=[];autosize=1;strokeColor=none;fillColor=none;" parent="1" vertex="1">
          <mxGeometry x="810" y="440" width="30" height="30" as="geometry" />
        </mxCell>
        <mxCell id="A0Pm9XfwY5P06-nTeu7w-144" value="&lt;b&gt;1&lt;/b&gt;" style="text;html=1;align=center;verticalAlign=middle;resizable=0;points=[];autosize=1;strokeColor=none;fillColor=none;" parent="1" vertex="1">
          <mxGeometry x="810" y="150" width="30" height="30" as="geometry" />
        </mxCell>
        <mxCell id="A0Pm9XfwY5P06-nTeu7w-146" value="" style="edgeStyle=orthogonalEdgeStyle;fontSize=12;html=1;endArrow=ERzeroToMany;startArrow=ERmandOne;rounded=0;exitX=-0.047;exitY=1.031;exitDx=0;exitDy=0;exitPerimeter=0;" parent="1" source="A0Pm9XfwY5P06-nTeu7w-162" edge="1">
          <mxGeometry width="100" height="100" relative="1" as="geometry">
            <mxPoint x="489.94" y="450" as="sourcePoint" />
            <mxPoint x="480.88000000000005" y="715" as="targetPoint" />
            <Array as="points">
              <mxPoint x="741" y="401" />
              <mxPoint x="770" y="400" />
              <mxPoint x="770" y="590" />
              <mxPoint x="450" y="590" />
              <mxPoint x="450" y="715" />
            </Array>
          </mxGeometry>
        </mxCell>
        <mxCell id="A0Pm9XfwY5P06-nTeu7w-147" value="&lt;b&gt;1&lt;/b&gt;" style="text;html=1;align=center;verticalAlign=middle;resizable=0;points=[];autosize=1;strokeColor=none;fillColor=none;" parent="1" vertex="1">
          <mxGeometry x="741" y="420" width="30" height="30" as="geometry" />
        </mxCell>
        <mxCell id="A0Pm9XfwY5P06-nTeu7w-148" value="&lt;b&gt;N&lt;/b&gt;" style="text;html=1;align=center;verticalAlign=middle;resizable=0;points=[];autosize=1;strokeColor=none;fillColor=none;" parent="1" vertex="1">
          <mxGeometry x="450" y="690" width="30" height="30" as="geometry" />
        </mxCell>
        <mxCell id="A0Pm9XfwY5P06-nTeu7w-153" value="" style="edgeStyle=orthogonalEdgeStyle;fontSize=12;html=1;endArrow=ERzeroToMany;startArrow=ERmandOne;rounded=0;exitX=0;exitY=0.5;exitDx=0;exitDy=0;" parent="1" source="A0Pm9XfwY5P06-nTeu7w-73" edge="1">
          <mxGeometry width="100" height="100" relative="1" as="geometry">
            <mxPoint x="850" y="660" as="sourcePoint" />
            <mxPoint x="482" y="750" as="targetPoint" />
            <Array as="points">
              <mxPoint x="841" y="645" />
              <mxPoint x="841" y="650" />
              <mxPoint x="781" y="650" />
              <mxPoint x="781" y="860" />
              <mxPoint x="431" y="860" />
              <mxPoint x="431" y="750" />
            </Array>
          </mxGeometry>
        </mxCell>
        <mxCell id="A0Pm9XfwY5P06-nTeu7w-154" value="&lt;b&gt;N&lt;/b&gt;" style="text;html=1;align=center;verticalAlign=middle;resizable=0;points=[];autosize=1;strokeColor=none;fillColor=none;" parent="1" vertex="1">
          <mxGeometry x="450" y="760" width="30" height="30" as="geometry" />
        </mxCell>
        <mxCell id="A0Pm9XfwY5P06-nTeu7w-155" value="&lt;b&gt;1&lt;/b&gt;" style="text;html=1;align=center;verticalAlign=middle;resizable=0;points=[];autosize=1;strokeColor=none;fillColor=none;" parent="1" vertex="1">
          <mxGeometry x="870" y="620" width="30" height="30" as="geometry" />
        </mxCell>
        <mxCell id="A0Pm9XfwY5P06-nTeu7w-157" value="" style="edgeStyle=orthogonalEdgeStyle;fontSize=12;html=1;endArrow=ERzeroToMany;startArrow=ERmandOne;rounded=0;exitX=0;exitY=0.5;exitDx=0;exitDy=0;" parent="1" source="A0Pm9XfwY5P06-nTeu7w-21" edge="1">
          <mxGeometry width="100" height="100" relative="1" as="geometry">
            <mxPoint x="484.97" y="550" as="sourcePoint" />
            <mxPoint x="476" y="810" as="targetPoint" />
            <Array as="points">
              <mxPoint x="80" y="910" />
              <mxPoint x="80" y="810" />
            </Array>
          </mxGeometry>
        </mxCell>
        <mxCell id="A0Pm9XfwY5P06-nTeu7w-158" value="&lt;b&gt;N&lt;/b&gt;" style="text;html=1;align=center;verticalAlign=middle;resizable=0;points=[];autosize=1;strokeColor=none;fillColor=none;" parent="1" vertex="1">
          <mxGeometry x="450" y="810" width="30" height="30" as="geometry" />
        </mxCell>
        <mxCell id="A0Pm9XfwY5P06-nTeu7w-159" value="&lt;b&gt;1&lt;/b&gt;" style="text;html=1;align=center;verticalAlign=middle;resizable=0;points=[];autosize=1;strokeColor=none;fillColor=none;" parent="1" vertex="1">
          <mxGeometry x="90" y="910" width="30" height="30" as="geometry" />
        </mxCell>
        <mxCell id="A0Pm9XfwY5P06-nTeu7w-161" value="" style="edgeStyle=orthogonalEdgeStyle;fontSize=12;html=1;endArrow=ERzeroToMany;startArrow=ERmandOne;rounded=0;exitX=1.005;exitY=0.804;exitDx=0;exitDy=0;exitPerimeter=0;entryX=-0.006;entryY=0.213;entryDx=0;entryDy=0;entryPerimeter=0;" parent="1" source="C-vyLk0tnHw3VtMMgP7b-14" target="A0Pm9XfwY5P06-nTeu7w-107" edge="1">
          <mxGeometry width="100" height="100" relative="1" as="geometry">
            <mxPoint x="751" y="415" as="sourcePoint" />
            <mxPoint x="430" y="950" as="targetPoint" />
            <Array as="points">
              <mxPoint x="800" y="414" />
              <mxPoint x="800" y="880" />
              <mxPoint x="430" y="880" />
              <mxPoint x="430" y="1009" />
            </Array>
          </mxGeometry>
        </mxCell>
        <mxCell id="A0Pm9XfwY5P06-nTeu7w-162" value="&lt;b&gt;1&lt;/b&gt;" style="text;html=1;align=center;verticalAlign=middle;resizable=0;points=[];autosize=1;strokeColor=none;fillColor=none;" parent="1" vertex="1">
          <mxGeometry x="741" y="370" width="30" height="30" as="geometry" />
        </mxCell>
        <mxCell id="A0Pm9XfwY5P06-nTeu7w-164" value="&lt;b&gt;N&lt;/b&gt;" style="text;html=1;align=center;verticalAlign=middle;resizable=0;points=[];autosize=1;strokeColor=none;fillColor=none;" parent="1" vertex="1">
          <mxGeometry x="431" y="1010" width="30" height="30" as="geometry" />
        </mxCell>
        <mxCell id="A0Pm9XfwY5P06-nTeu7w-165" value="" style="edgeStyle=orthogonalEdgeStyle;fontSize=12;html=1;endArrow=ERzeroToMany;startArrow=ERmandOne;rounded=0;exitX=0;exitY=0.5;exitDx=0;exitDy=0;entryX=-0.006;entryY=0.094;entryDx=0;entryDy=0;entryPerimeter=0;" parent="1" source="A0Pm9XfwY5P06-nTeu7w-97" target="A0Pm9XfwY5P06-nTeu7w-107" edge="1">
          <mxGeometry width="100" height="100" relative="1" as="geometry">
            <mxPoint x="800" y="1041" as="sourcePoint" />
            <mxPoint x="540.88" y="1355" as="targetPoint" />
            <Array as="points">
              <mxPoint x="810" y="1055" />
              <mxPoint x="810" y="1230" />
              <mxPoint x="410" y="1230" />
              <mxPoint x="410" y="982" />
            </Array>
          </mxGeometry>
        </mxCell>
        <mxCell id="A0Pm9XfwY5P06-nTeu7w-166" value="&lt;b&gt;N&lt;/b&gt;" style="text;html=1;align=center;verticalAlign=middle;resizable=0;points=[];autosize=1;strokeColor=none;fillColor=none;" parent="1" vertex="1">
          <mxGeometry x="431" y="950" width="30" height="30" as="geometry" />
        </mxCell>
        <mxCell id="A0Pm9XfwY5P06-nTeu7w-170" value="1" style="text;html=1;align=center;verticalAlign=middle;resizable=0;points=[];autosize=1;strokeColor=none;fillColor=none;fontStyle=1" parent="1" vertex="1">
          <mxGeometry x="800" y="1030" width="30" height="30" as="geometry" />
        </mxCell>
        <mxCell id="A0Pm9XfwY5P06-nTeu7w-174" value="" style="edgeStyle=orthogonalEdgeStyle;fontSize=12;html=1;endArrow=ERzeroToMany;startArrow=ERmandOne;rounded=0;exitX=0;exitY=0.5;exitDx=0;exitDy=0;entryX=0;entryY=0.5;entryDx=0;entryDy=0;" parent="1" source="A0Pm9XfwY5P06-nTeu7w-83" target="A0Pm9XfwY5P06-nTeu7w-76" edge="1">
          <mxGeometry width="100" height="100" relative="1" as="geometry">
            <mxPoint x="860" y="185" as="sourcePoint" />
            <mxPoint x="850.94" y="450" as="targetPoint" />
            <Array as="points">
              <mxPoint x="820" y="885" />
              <mxPoint x="820" y="705" />
            </Array>
          </mxGeometry>
        </mxCell>
        <mxCell id="A0Pm9XfwY5P06-nTeu7w-176" value="&lt;b&gt;1&lt;/b&gt;" style="text;html=1;align=center;verticalAlign=middle;resizable=0;points=[];autosize=1;strokeColor=none;fillColor=none;" parent="1" vertex="1">
          <mxGeometry x="845" y="860" width="30" height="30" as="geometry" />
        </mxCell>
        <mxCell id="A0Pm9XfwY5P06-nTeu7w-177" value="&lt;b&gt;N&lt;/b&gt;" style="text;html=1;align=center;verticalAlign=middle;resizable=0;points=[];autosize=1;strokeColor=none;fillColor=none;" parent="1" vertex="1">
          <mxGeometry x="865" y="710" width="30" height="30" as="geometry" />
        </mxCell>
        <mxCell id="A0Pm9XfwY5P06-nTeu7w-178" value="" style="edgeStyle=orthogonalEdgeStyle;fontSize=12;html=1;endArrow=ERzeroToMany;startArrow=ERmandOne;rounded=0;exitX=1;exitY=0.5;exitDx=0;exitDy=0;entryX=-0.004;entryY=0.217;entryDx=0;entryDy=0;entryPerimeter=0;" parent="1" source="A0Pm9XfwY5P06-nTeu7w-41" target="A0Pm9XfwY5P06-nTeu7w-76" edge="1">
          <mxGeometry width="100" height="100" relative="1" as="geometry">
            <mxPoint x="770" y="690" as="sourcePoint" />
            <mxPoint x="860" y="680" as="targetPoint" />
            <Array as="points">
              <mxPoint x="770" y="685" />
              <mxPoint x="770" y="679" />
            </Array>
          </mxGeometry>
        </mxCell>
        <mxCell id="A0Pm9XfwY5P06-nTeu7w-179" value="&lt;b&gt;N&lt;/b&gt;" style="text;html=1;align=center;verticalAlign=middle;resizable=0;points=[];autosize=1;strokeColor=none;fillColor=none;" parent="1" vertex="1">
          <mxGeometry x="870" y="650" width="30" height="30" as="geometry" />
        </mxCell>
        <mxCell id="A0Pm9XfwY5P06-nTeu7w-180" value="&lt;b&gt;1&lt;/b&gt;" style="text;html=1;align=center;verticalAlign=middle;resizable=0;points=[];autosize=1;strokeColor=none;fillColor=none;" parent="1" vertex="1">
          <mxGeometry x="751" y="690" width="30" height="30" as="geometry" />
        </mxCell>
      </root>
    </mxGraphModel>
  </diagram>
</mxfile>
